<svg xmlns="http://www.w3.org/2000/svg" width="1400" height="860" viewBox="0 0 1400 860">
  <rect width="1400" height="860" fill="#eef3f7"/>
  <rect x="35" y="35" width="1330" height="790" rx="24" fill="#ffffff" stroke="#d6dee5" stroke-width="2"/>
  <rect x="35" y="35" width="1330" height="64" rx="24" fill="#18352f"/>
  <circle cx="82" cy="67" r="8" fill="#ff6b6b"/>
  <circle cx="112" cy="67" r="8" fill="#ffd166"/>
  <circle cx="142" cy="67" r="8" fill="#06d6a0"/>
  <text x="190" y="75" fill="#ffffff" font-family="Segoe UI, Arial, sans-serif" font-size="24" font-weight="700">AI Recruitment System - Swagger Demo</text>

  <text x="85" y="160" fill="#18352f" font-family="Segoe UI, Arial, sans-serif" font-size="34" font-weight="700">AI Recruitment System</text>
  <text x="85" y="200" fill="#617b73" font-family="Segoe UI, Arial, sans-serif" font-size="20">AI-powered candidate screening and ranking API</text>

  <rect x="85" y="250" width="1220" height="90" rx="18" fill="#ebf7f1" stroke="#7fad9a" stroke-width="2"/>
  <rect x="110" y="273" width="86" height="44" rx="10" fill="#3ba675"/>
  <text x="132" y="302" fill="#ffffff" font-family="Segoe UI, Arial, sans-serif" font-size="21" font-weight="700">GET</text>
  <text x="230" y="303" fill="#1d4035" font-family="Consolas, Courier New, monospace" font-size="24" font-weight="700">/</text>
  <text x="280" y="303" fill="#365d50" font-family="Segoe UI, Arial, sans-serif" font-size="20">Health check endpoint</text>

  <rect x="85" y="375" width="1220" height="235" rx="18" fill="#eef2ff" stroke="#90a2e8" stroke-width="2"/>
  <rect x="110" y="398" width="96" height="44" rx="10" fill="#4f71d9"/>
  <text x="123" y="427" fill="#ffffff" font-family="Segoe UI, Arial, sans-serif" font-size="21" font-weight="700">POST</text>
  <text x="240" y="428" fill="#213b82" font-family="Consolas, Courier New, monospace" font-size="24" font-weight="700">/screen</text>
  <text x="360" y="428" fill="#4c5fa6" font-family="Segoe UI, Arial, sans-serif" font-size="20">Screen, rank, and explain candidates</text>

  <rect x="125" y="470" width="1140" height="110" rx="14" fill="#ffffff" stroke="#d2dbf8" stroke-width="1.5"/>
  <text x="155" y="515" fill="#374a94" font-family="Consolas, Courier New, monospace" font-size="20">{</text>
  <text x="185" y="515" fill="#374a94" font-family="Consolas, Courier New, monospace" font-size="20">"job": {"title": "Backend Engineer", "description": "FastAPI, AWS, SQL..."},</text>
  <text x="185" y="548" fill="#374a94" font-family="Consolas, Courier New, monospace" font-size="20">"candidates": [ ... talent profile schema objects ... ]</text>
  <text x="155" y="578" fill="#374a94" font-family="Consolas, Courier New, monospace" font-size="20">}</text>

  <rect x="85" y="655" width="1220" height="110" rx="18" fill="#fff7e6" stroke="#ddb45f" stroke-width="2"/>
  <text x="115" y="708" fill="#6c5520" font-family="Segoe UI, Arial, sans-serif" font-size="24" font-weight="700">Best demo route:</text>
  <text x="335" y="708" fill="#6c5520" font-family="Consolas, Courier New, monospace" font-size="24">http://127.0.0.1:8000/docs</text>
  <text x="115" y="742" fill="#8b6d31" font-family="Segoe UI, Arial, sans-serif" font-size="19">Use the interactive docs to paste a job description, candidate payload, and inspect ranking output live.</text>
</svg>
